<svg t="1726069602149" class="icon" viewBox="0 0 1024 1024" version="1.1" xmlns="http://www.w3.org/2000/svg" p-id="4510" width="24" height="24"><path d="M510.38208 71.66976c-246.00576 0-445.44 199.44448-445.44 445.45024 0 245.99552 199.43424 445.44 445.44 445.44s445.44-199.44448 445.44-445.44c0-246.00576-199.43424-445.45024-445.44-445.45024z m118.85568 447.97952c-0.1024 1.44384-0.14336 2.87744-0.39936 4.3008-0.04096 0.21504-0.16384 0.44032-0.2048 0.65536a35.64544 35.64544 0 0 1-9.63584 17.83808L452.4544 708.98688a35.82976 35.82976 0 1 1-50.67776-50.67776l141.2096-141.19936-141.2096-141.19936a35.82976 35.82976 0 1 1 50.67776-50.67776l166.54336 166.52288c1.7408 1.76128 3.2768 3.6352 4.57728 5.62176 2.37568 3.60448 3.9424 7.55712 4.88448 11.60192 0.1024 0.44032 0.27648 0.86016 0.37888 1.28 0.256 1.40288 0.29696 2.816 0.39936 4.21888 0.06144 0.88064 0.256 1.76128 0.256 2.64192 0.01024 0.82944-0.19456 1.66912-0.256 2.52928z" fill="#477a95" p-id="4511"></path></svg>