<?xml version="1.0" standalone="no"?><!DOCTYPE svg PUBLIC "-//W3C//DTD SVG 1.1//EN" "http://www.w3.org/Graphics/SVG/1.1/DTD/svg11.dtd"><svg t="1681697013197" class="icon" viewBox="0 0 1024 1024" version="1.1" xmlns="http://www.w3.org/2000/svg" p-id="1756" xmlns:xlink="http://www.w3.org/1999/xlink" width="64" height="64"><path d="M512 0C229.248 0 0 229.248 0 512s229.248 512 512 512 512-229.248 512-512S794.752 0 512 0z m199.978667 525.653333l-291.456 247.978667a21.546667 21.546667 0 0 1-14.336 5.376c-10.794667 0-21.034667-7.594667-21.034667-19.029333V263.936c0-11.434667 10.24-19.072 21.034667-19.072 5.034667 0 10.112 1.621333 14.336 5.418667l291.456 247.978666c8.533333 7.509333 8.533333 19.84 0 27.349334z" fill="#f7887d" opacity=".65" p-id="1757"></path></svg>