<?xml version="1.0" standalone="no"?><!DOCTYPE svg PUBLIC "-//W3C//DTD SVG 1.1//EN" "http://www.w3.org/Graphics/SVG/1.1/DTD/svg11.dtd"><svg t="1692772793943" class="icon" viewBox="0 0 1024 1024" version="1.1" xmlns="http://www.w3.org/2000/svg" p-id="1612" id="mx_n_1692772793944" xmlns:xlink="http://www.w3.org/1999/xlink" width="200" height="200"><path d="M814.020964 402.310856l0 73.147428q0 126.264108-84.282732 219.698269t-208.274983 107.129304l0 75.419286 146.262859 0q14.847072 0 25.726392 10.847322t10.847322 25.726392-10.847322 25.726392-25.726392 10.847322l-365.705143 0q-14.847072 0-25.726392-10.847322t-10.847322-25.726392 10.847322-25.726392 25.726392-10.847322l146.262859 0 0-75.419286q-123.99225-13.727142-208.274983-107.129304t-84.282732-219.698269l0-73.147428q0-14.847072 10.847322-25.726392t25.726392-10.847322 25.726392 10.847322 10.847322 25.726392l0 73.147428q0 105.721392 75.131304 180.852697t180.852697 75.131304 180.852697-75.131304 75.131304-180.852697l0-73.147428q0-14.847072 10.847322-25.726392t25.726392-10.847322 25.726392 10.847322 10.847322 25.726392zM667.758105 182.900569l0 292.557715q0 75.419286-53.724642 129.143929t-129.143929 53.724642-129.143929-53.724642-53.724642-129.143929l0-292.557715q0-75.419286 53.724642-129.143929t129.143929-53.724642 129.143929 53.724642 53.724642 129.143929z" p-id="1613" fill="#2C3E50"></path></svg>