<?xml version="1.0" standalone="no"?><!DOCTYPE svg PUBLIC "-//W3C//DTD SVG 1.1//EN" "http://www.w3.org/Graphics/SVG/1.1/DTD/svg11.dtd"><svg t="1692773517572" class="icon" viewBox="0 0 1024 1024" version="1.1" xmlns="http://www.w3.org/2000/svg" p-id="2728" xmlns:xlink="http://www.w3.org/1999/xlink" width="200" height="200"><path d="M426.666667 288v448a32.426667 32.426667 0 0 1-32 32h-64a32.426667 32.426667 0 0 1-32-32V288A32.426667 32.426667 0 0 1 330.666667 256h64a32.426667 32.426667 0 0 1 32 32zM693.333333 256h-64a32.426667 32.426667 0 0 0-32 32v448a32.426667 32.426667 0 0 0 32 32h64a32.426667 32.426667 0 0 0 32-32V288a32.426667 32.426667 0 0 0-32-32z" p-id="2729" fill="#2C3E50"></path></svg>