<svg t="1728968815539" class="icon" viewBox="0 0 1024 1024" version="1.1" xmlns="http://www.w3.org/2000/svg" p-id="6277" width="200" height="200"><path d="M933 167.42l-384-160C539.25 3.358 522.68 0.014 512.12 0.014c-10.624 0-27.1 3.344-36.92 7.406l-383.98 160C55.4 182.2 32 217.2 32 254.2 32 770.4 410.4 1024 511.8 1024 614.2 1024 992 767.6 992 254.2c0-37-23.4-72-59-86.78zM704 400c0 11.062-3.802 22.18-11.562 31.24l-192 224C487 671 469.2 670.2 464 670.2a48.08 48.08 0 0 1-33.94-14.062l-96-96C324.6 552.6 320 540.2 320 526.2c0-25.58 20.6-48 48-48a47.86 47.86 0 0 1 33.94 14.062l59.38 59.38 158.26-184.68c9.518-11.064 22.96-16.724 36.48-16.724C692.8 352 704 385.2 704 400z" p-id="6278" fill="#ff4379"></path></svg>